<?xml version="1.0" encoding="iso-8859-1"?>
<!-- Generator: Adobe Illustrator 19.0.0, SVG Export Plug-In . SVG Version: 6.00 Build 0)  -->
<svg version="1.1" id="&#x56FE;&#x5C42;_1" xmlns="http://www.w3.org/2000/svg" xmlns:xlink="http://www.w3.org/1999/xlink" x="0px"
	 y="0px" viewBox="0 0 183 84" style="enable-background:new 0 0 183 84;" xml:space="preserve">
<path id="XMLID_19_" d="M52.362,42.667c2.115-6.829,6.669-10.392,13.668-10.689c6.837,0.297,9.558,3.763,8.161,10.393
	c-1.995,6.731-6.569,10.192-13.73,10.391C53.5,52.563,50.801,49.2,52.362,42.667 M64.74,37.323c-2.208,0.1-3.795,1.782-4.764,5.048
	c-0.835,3.465-0.222,5.247,1.838,5.344c2.178,0,3.746-1.782,4.7-5.344C67.32,39.008,66.731,37.323,64.74,37.323"/>
<path id="XMLID_16_" d="M121.056,42.964c2.115-6.83,6.669-10.392,13.668-10.689c6.836,0.297,9.558,3.763,8.161,10.392
	c-1.995,6.731-6.569,10.192-13.729,10.392C122.194,52.859,119.495,49.496,121.056,42.964 M133.434,37.62
	c-2.208,0.099-3.796,1.782-4.764,5.047c-0.836,3.466-0.222,5.248,1.837,5.345c2.179,0,3.748-1.782,4.702-5.345
	C136.014,39.304,135.424,37.62,133.434,37.62"/>
<path id="XMLID_13_" d="M94.904,46.391l1.729-6.456c0.879-3.415,0.101-5.835-2.249-6.99c-1.164-0.57-2.573-0.998-4.395-0.998
	c-0.18,0-0.362,0-0.556,0.005c-4.081,0.112-7.118,1.229-9.792,2.627l-2.031,5.39c3.649-2.25,6.399-2.943,8.848-3.02
	c3.193-0.108,3.152,1.291,3.059,1.64c-0.276,1.032-1.102,1.943-4.864,2.305c-0.081,0.005-0.184,0.011-0.31,0.022
	c-1.261,0.119-5.084,0.47-7.169,1.879c-0.827,0.564-1.434,1.105-1.902,1.685c-0.533,0.665-0.939,1.505-1.208,2.508
	c-0.27,1.008-0.324,1.891-0.158,2.595c0.731,3.085,4.235,3.152,5.385,3.167l0.097,0.007c0.083,0,0.167,0.005,0.247,0.005
	c2.696,0,5.355-1.094,5.892-1.329l2.088-3.958l-0.352,1.314c-0.72,2.525-0.028,3.635,0.136,3.777h6.771
	C93.953,51.777,93.919,50.056,94.904,46.391 M81.547,48.185c-0.177-0.236-0.468-0.705-0.227-1.46
	c0.145-0.479,0.467-1.726,3.021-2.334c3.374-0.822,4.63-1.974,4.63-1.974l-1.117,4.168C86.572,47.566,82.882,49.67,81.547,48.185"/>
<path id="XMLID_12_" d="M178.213,37.472h3.554L183,32.869h-3.553l1.988-7.422l-8.214,2.54l-1.308,4.882h-2.701l-1.233,4.602h2.701
	l-2.227,8.313c-1.051,3.563-0.993,5.641,0.177,6.235c0.761,0.694,3.775,0.939,9.04,0.742l1.512-5.641h-1.28
	c-1.759,0.199-2.293-0.643-1.598-2.525L178.213,37.472z"/>
<polygon id="XMLID_11_" points="181.435,25.446 181.435,25.448 181.44,25.446 "/>
<path id="XMLID_10_" d="M160.172,32.847l-2.545,9.5c-0.902,3.367-2.288,5-4.157,4.9c-1.923,0.1-2.492-1.136-1.706-3.711
	l2.863-10.689h-7.676l-3.262,12.174c-1.312,5.247,0.246,7.917,4.675,8.016c2.292,0.147,4.326-0.422,6.105-1.704l2.444-4.091
	l-1.472,5.491h-0.03l-0.003,0.008h6.966l5.33-19.894H160.172z"/>
<path id="XMLID_7_" d="M116.241,27.693l-2.134,7.966c-0.222-0.438-1.379-2.475-4.197-2.686c-0.398-0.021-0.786-0.038-1.166-0.038
	c-2.61,0-5.058,0.639-6.791,2.061c-2.238,1.84-3.353,3.919-4.222,7.163c-1.241,4.652-0.958,7.154,1.039,9.236
	c0.835,0.873,2.358,1.368,4.17,1.368h0.002c1.863,0,4.157-0.273,5.456-1.135c0,0,1.767-2.939,2.599-4.356l-1.473,5.491h7.548
	l7.399-27.61L116.241,27.693z M112.805,40.513l-1.659,6.194c-1.074,0.741-2.707,1.204-4.1,1.204c-0.076,0-0.156,0-0.23-0.012
	c-1.756-0.05-2.18-0.883-2.435-1.602c-0.227-0.632-0.168-1.686,0.175-3.149c0.392-1.679,0.952-3.906,2.331-4.925
	c0.819-0.594,1.842-0.988,2.96-0.988c0.183,0,0.387,0.005,0.582,0.028C112.75,37.501,113.03,38.988,112.805,40.513"/>
<path id="XMLID_6_" d="M28.077,32.275c1.339-4.651-1.605-6.927-8.832-6.829h-3.721l-1.723,6.384h2.881
	c2.515-0.197,3.514,0.497,2.996,2.079c-0.424,1.584-1.631,2.375-3.621,2.375H12.6l-1.362,5.047h2.614
	c3.369-0.197,4.708,0.645,4.015,2.524c-0.384,1.782-1.84,2.624-4.371,2.525h-3.62l-1.723,6.383h4.058
	c7.676,0,12.208-2.769,13.599-8.313c0.78-3.267-0.132-5.345-2.736-6.236C25.651,36.729,27.319,34.75,28.077,32.275"/>
<path id="XMLID_5_" style="fill:#A41F35;" d="M0.223,49.283c-0.646,1.993,0.136,3.479,2.034,3.479h5.299l7.372-27.316h-1.29
	c-1.839,0.029-4.094,1.276-5.016,2.984L8.369,29.06l-0.061,0.153l0.001-0.001"/>
<path id="XMLID_2_" d="M40.554,52.763l1.256-4.534c1.018-3.358,0.118-4.662-3.256-4.535h-2.4l-2.287,9.069h-7.998l6.573-26.07H44.04
	c7.6-0.188,10.581,2.267,8.941,7.367c-0.947,3.4-2.859,5.526-5.74,6.376c2.854,0.662,3.507,2.702,2.516,6.942l-1.317,5.385H40.554z
	 M38.905,32.785l-1.286,5.1h3.2c2.643,0.096,4.132-0.708,4.473-2.408c0.34-1.701-0.544-2.597-2.653-2.692H38.905z"/>
</svg>
