<?xml version="1.0" encoding="iso-8859-1"?>
<!-- Generator: Adobe Illustrator 19.0.0, SVG Export Plug-In . SVG Version: 6.00 Build 0)  -->
<svg version="1.1" id="&#x56FE;&#x5C42;_1" xmlns="http://www.w3.org/2000/svg" xmlns:xlink="http://www.w3.org/1999/xlink" x="0px"
	 y="0px" viewBox="0 0 183 84" style="enable-background:new 0 0 183 84;" xml:space="preserve">
<g id="XMLID_18_">
	<defs>
		<rect id="XMLID_1_" x="0.068" y="28.056" width="182.864" height="27.888"/>
	</defs>
	<clipPath id="XMLID_19_">
		<use xlink:href="#XMLID_1_"  style="overflow:visible;"/>
	</clipPath>
	<path id="XMLID_37_" style="clip-path:url(#XMLID_19_);fill:#01111C;" d="M52.392,45.559c2.113-6.824,6.664-10.384,13.657-10.681
		c6.832,0.297,9.55,3.76,8.155,10.385c-1.994,6.727-6.564,10.185-13.72,10.384C53.529,55.448,50.832,52.087,52.392,45.559
		 M64.76,40.219c-2.207,0.1-3.793,1.78-4.761,5.044c-0.834,3.463-0.221,5.243,1.836,5.34c2.178,0,3.744-1.78,4.697-5.34
		C67.338,41.902,66.749,40.219,64.76,40.219"/>
	<path id="XMLID_34_" style="clip-path:url(#XMLID_19_);fill:#01111C;" d="M121.034,45.855c2.113-6.824,6.664-10.384,13.657-10.681
		c6.832,0.297,9.55,3.76,8.156,10.385c-1.994,6.726-6.565,10.184-13.72,10.384C122.171,55.743,119.474,52.382,121.034,45.855
		 M133.403,40.515c-2.207,0.099-3.793,1.78-4.761,5.044c-0.835,3.463-0.221,5.243,1.836,5.34c2.177,0,3.744-1.78,4.698-5.34
		C135.981,42.198,135.391,40.515,133.403,40.515"/>
	<path id="XMLID_31_" style="clip-path:url(#XMLID_19_);fill:#01111C;" d="M94.901,49.28l1.728-6.45
		c0.878-3.413,0.101-5.831-2.247-6.985c-1.163-0.57-2.571-0.997-4.392-0.997c-0.18,0-0.362,0-0.556,0.005
		c-4.078,0.113-7.113,1.228-9.784,2.626l-2.03,5.386c3.646-2.248,6.394-2.941,8.842-3.019c3.19-0.108,3.15,1.29,3.057,1.64
		c-0.276,1.03-1.102,1.941-4.861,2.303c-0.081,0.006-0.184,0.011-0.31,0.022c-1.26,0.119-5.079,0.47-7.163,1.878
		c-0.826,0.563-1.432,1.104-1.9,1.683c-0.532,0.664-0.938,1.504-1.207,2.506c-0.27,1.008-0.323,1.889-0.158,2.592
		c0.731,3.082,4.233,3.15,5.381,3.165l0.097,0.006c0.083,0,0.167,0.006,0.247,0.006c2.694,0,5.351-1.093,5.888-1.329l2.085-3.955
		l-0.352,1.313c-0.719,2.523-0.028,3.632,0.136,3.774h6.766C93.951,54.662,93.917,52.943,94.901,49.28 M81.554,51.072
		c-0.177-0.236-0.468-0.704-0.227-1.459c0.145-0.479,0.467-1.726,3.019-2.333c3.371-0.822,4.627-1.972,4.627-1.972l-1.116,4.166
		C86.575,50.454,82.888,52.557,81.554,51.072"/>
	<path id="XMLID_10_" style="clip-path:url(#XMLID_19_);fill:#01111C;" d="M178.148,40.367h3.552l1.232-4.599h-3.551l1.987-7.416
		l-8.208,2.537l-1.307,4.878h-2.699l-1.232,4.599h2.699l-2.226,8.306c-1.05,3.561-0.991,5.638,0.177,6.231
		c0.76,0.693,3.773,0.939,9.034,0.742l1.511-5.637h-1.279c-1.758,0.199-2.291-0.642-1.597-2.522L178.148,40.367z"/>
	<polygon id="XMLID_9_" style="clip-path:url(#XMLID_19_);fill:#01111C;" points="181.368,28.35 181.368,28.352 181.373,28.35 	"/>
	<path id="XMLID_8_" style="clip-path:url(#XMLID_19_);fill:#01111C;" d="M160.121,35.746l-2.544,9.493
		c-0.901,3.364-2.286,4.996-4.153,4.896c-1.922,0.1-2.49-1.135-1.705-3.708l2.862-10.681h-7.671l-3.26,12.165
		c-1.311,5.243,0.246,7.911,4.672,8.01c2.29,0.147,4.323-0.421,6.101-1.702l2.442-4.088l-1.47,5.487h-0.031l-0.002,0.007h6.96
		l5.326-19.879H160.121z"/>
	<path id="XMLID_25_" style="clip-path:url(#XMLID_19_);fill:#01111C;" d="M116.222,30.596l-2.132,7.96
		c-0.221-0.438-1.378-2.474-4.194-2.685c-0.399-0.021-0.786-0.038-1.166-0.038c-2.608,0-5.054,0.639-6.786,2.06
		c-2.237,1.838-3.35,3.915-4.218,7.157c-1.241,4.649-0.958,7.148,1.037,9.229c0.834,0.873,2.356,1.368,4.167,1.368h0.001
		c1.862,0,4.154-0.273,5.453-1.134c0,0,1.766-2.937,2.597-4.353l-1.47,5.487h7.542l7.393-27.59L116.222,30.596z M112.79,43.407
		l-1.658,6.189c-1.073,0.74-2.706,1.203-4.096,1.203c-0.076,0-0.156,0-0.23-0.012c-1.754-0.05-2.178-0.883-2.433-1.601
		c-0.227-0.631-0.168-1.686,0.175-3.146c0.392-1.678,0.95-3.904,2.328-4.921c0.819-0.593,1.841-0.987,2.959-0.987
		c0.183,0,0.387,0.005,0.582,0.028C112.735,40.397,113.014,41.883,112.79,43.407"/>
	<path id="XMLID_5_" style="clip-path:url(#XMLID_19_);fill:#01111C;" d="M28.125,35.174c1.338-4.647-1.603-6.921-8.825-6.824
		h-3.718l-1.721,6.379h2.878c2.514-0.197,3.511,0.496,2.995,2.077c-0.425,1.583-1.63,2.374-3.619,2.374h-3.455l-1.362,5.044h2.613
		c3.366-0.197,4.704,0.644,4.011,2.522c-0.384,1.78-1.839,2.622-4.368,2.522H9.936l-1.722,6.379h4.055
		c7.671,0,12.198-2.767,13.589-8.308c0.779-3.264-0.132-5.341-2.734-6.231C25.7,39.625,27.367,37.647,28.125,35.174"/>
	<path id="XMLID_4_" style="clip-path:url(#XMLID_19_);fill:#BE0038;" d="M0.291,52.17c-0.646,1.992,0.136,3.477,2.032,3.477h5.295
		l7.367-27.296h-1.288c-1.838,0.029-4.091,1.274-5.012,2.982l-0.253,0.629L8.37,32.113l0-0.001"/>
	<path id="XMLID_20_" style="clip-path:url(#XMLID_19_);fill:#01111C;" d="M40.592,55.647l1.255-4.531
		c1.017-3.355,0.118-4.658-3.254-4.53h-2.398l-2.285,9.062h-7.992l6.568-26.05h11.59c7.595-0.188,10.574,2.265,8.935,7.362
		c-0.947,3.398-2.858,5.521-5.736,6.371c2.851,0.661,3.504,2.7,2.514,6.937l-1.316,5.381H40.592z M38.943,35.684l-1.285,5.096h3.196
		c2.641,0.095,4.13-0.707,4.471-2.407c0.339-1.699-0.544-2.595-2.652-2.69H38.943z"/>
</g>
</svg>
